<mxfile host="app.diagrams.net" modified="2021-02-07T18:16:26.790Z" agent="5.0 (Windows NT 10.0; Win64; x64) AppleWebKit/537.36 (KHTML, like Gecko) Chrome/88.0.4324.104 Safari/537.36" etag="RrLu_k9ew3y1hYQZ5Of3" version="14.2.9" type="github">
  <diagram id="ybkq_08pFx3v8ArIRJ2Y" name="Page-1">
    <mxGraphModel dx="1483" dy="881" grid="1" gridSize="10" guides="1" tooltips="1" connect="1" arrows="1" fold="1" page="1" pageScale="1" pageWidth="827" pageHeight="1169" math="0" shadow="0">
      <root>
        <mxCell id="0" />
        <mxCell id="1" parent="0" />
        <mxCell id="hpZ1As8iT0wXgn2PKjrO-1" value="" style="ellipse;fillColor=#12AAB5;opacity=60;strokeColor=none;html=1;fontColor=#FFFFFF;labelBorderColor=none;labelBackgroundColor=none;" vertex="1" parent="1">
          <mxGeometry x="350" y="260" width="500" height="500" as="geometry" />
        </mxCell>
        <mxCell id="hpZ1As8iT0wXgn2PKjrO-2" value="" style="ellipse;fillColor=#e85642;opacity=60;strokeColor=none;html=1;fontColor=#FFFFFF;shadow=1;sketch=0;" vertex="1" parent="1">
          <mxGeometry x="660" y="260" width="500" height="500" as="geometry" />
        </mxCell>
        <mxCell id="hpZ1As8iT0wXgn2PKjrO-3" value="&lt;font style=&quot;font-size: 36px&quot;&gt;Popularity&lt;br&gt;Evaluation&lt;/font&gt;" style="text;fontSize=24;align=center;verticalAlign=middle;html=1;fontColor=#FFFFFF;" vertex="1" parent="1">
          <mxGeometry x="505" y="281.5" width="190" height="70" as="geometry" />
        </mxCell>
        <mxCell id="hpZ1As8iT0wXgn2PKjrO-4" value="&lt;font style=&quot;font-size: 36px&quot;&gt;Influence&lt;br&gt;Evaluation&lt;/font&gt;" style="text;fontSize=24;align=center;verticalAlign=middle;html=1;fontColor=#FFFFFF;" vertex="1" parent="1">
          <mxGeometry x="797.25" y="281.5" width="225.5" height="70" as="geometry" />
        </mxCell>
        <mxCell id="hpZ1As8iT0wXgn2PKjrO-6" value="&lt;font style=&quot;font-size: 24px&quot;&gt;Prince&lt;/font&gt;" style="text;align=center;html=1;fontColor=#FFFFFF;fontSize=16;" vertex="1" parent="1">
          <mxGeometry x="414" y="420" width="129.5" height="38.5" as="geometry" />
        </mxCell>
        <mxCell id="hpZ1As8iT0wXgn2PKjrO-7" value="&lt;font style=&quot;font-size: 24px&quot;&gt;Sublime&lt;/font&gt;" style="text;align=center;html=1;fontColor=#FFFFFF;fontSize=16;" vertex="1" parent="1">
          <mxGeometry x="460" y="508.5" width="129.5" height="38.5" as="geometry" />
        </mxCell>
        <mxCell id="hpZ1As8iT0wXgn2PKjrO-8" value="&lt;span style=&quot;font-size: 31px;&quot;&gt;Revolutionary&lt;/span&gt;" style="text;fontSize=31;align=center;verticalAlign=middle;html=1;" vertex="1" parent="1">
          <mxGeometry x="679.62" y="470" width="150.25" height="54.25" as="geometry" />
        </mxCell>
        <mxCell id="hpZ1As8iT0wXgn2PKjrO-9" value="&lt;font style=&quot;font-size: 24px&quot;&gt;Oasis&lt;/font&gt;" style="text;align=center;html=1;fontColor=#FFFFFF;fontSize=16;" vertex="1" parent="1">
          <mxGeometry x="980" y="404.25" width="129.5" height="38.5" as="geometry" />
        </mxCell>
        <mxCell id="hpZ1As8iT0wXgn2PKjrO-10" value="&lt;font style=&quot;font-size: 24px&quot;&gt;Radiohead&lt;/font&gt;" style="text;align=center;html=1;fontColor=#FFFFFF;fontSize=16;" vertex="1" parent="1">
          <mxGeometry x="920" y="470" width="129.5" height="38.5" as="geometry" />
        </mxCell>
        <mxCell id="hpZ1As8iT0wXgn2PKjrO-11" value="&lt;font style=&quot;font-size: 24px&quot;&gt;Codeplay&lt;/font&gt;" style="text;align=center;html=1;fontColor=#FFFFFF;fontSize=16;" vertex="1" parent="1">
          <mxGeometry x="960" y="540" width="129.5" height="38.5" as="geometry" />
        </mxCell>
        <mxCell id="hpZ1As8iT0wXgn2PKjrO-12" value="&lt;font style=&quot;font-size: 24px&quot;&gt;Nirvana&lt;/font&gt;" style="text;align=center;html=1;fontColor=#FFFFFF;fontSize=16;" vertex="1" parent="1">
          <mxGeometry x="870" y="591.5" width="129.5" height="38.5" as="geometry" />
        </mxCell>
        <mxCell id="hpZ1As8iT0wXgn2PKjrO-13" value="&lt;font style=&quot;font-size: 24px&quot;&gt;U2&lt;/font&gt;" style="text;align=center;html=1;fontColor=#FFFFFF;fontSize=16;" vertex="1" parent="1">
          <mxGeometry x="689.99" y="410" width="129.5" height="38.5" as="geometry" />
        </mxCell>
        <mxCell id="hpZ1As8iT0wXgn2PKjrO-14" value="&lt;font style=&quot;font-size: 21px;&quot;&gt;Michael Jackson&lt;/font&gt;" style="text;align=center;html=1;fontColor=#FFFFFF;fontSize=21;" vertex="1" parent="1">
          <mxGeometry x="690" y="550" width="129.5" height="48.5" as="geometry" />
        </mxCell>
        <mxCell id="hpZ1As8iT0wXgn2PKjrO-15" value="&lt;font style=&quot;font-size: 24px&quot;&gt;Green Day&lt;/font&gt;" style="text;align=center;html=1;fontColor=#FFFFFF;fontSize=16;" vertex="1" parent="1">
          <mxGeometry x="430" y="591.5" width="129.5" height="38.5" as="geometry" />
        </mxCell>
      </root>
    </mxGraphModel>
  </diagram>
</mxfile>
